<svg width="44" height="44" viewBox="0 0 44 44" fill="none" xmlns="http://www.w3.org/2000/svg">
<path d="M7.33331 34.8334V31.1667H11V18.3334C11 15.7973 11.7639 13.5515 13.2916 11.5959C14.8194 9.6098 16.8055 8.31119 19.25 7.70008V6.41675C19.25 5.65286 19.5097 5.01119 20.0291 4.49175C20.5791 3.94175 21.2361 3.66675 22 3.66675C22.7639 3.66675 23.4055 3.94175 23.925 4.49175C24.475 5.01119 24.75 5.65286 24.75 6.41675V7.70008C27.1944 8.31119 29.1805 9.6098 30.7083 11.5959C32.2361 13.5515 33 15.7973 33 18.3334V31.1667H36.6666V34.8334H7.33331ZM22 40.3334C20.9916 40.3334 20.1208 39.982 19.3875 39.2792C18.6847 38.5459 18.3333 37.6751 18.3333 36.6667H25.6666C25.6666 37.6751 25.3 38.5459 24.5666 39.2792C23.8639 39.982 23.0083 40.3334 22 40.3334ZM14.6666 31.1667H29.3333V18.3334C29.3333 16.3167 28.6153 14.5904 27.1791 13.1542C25.743 11.7181 24.0166 11.0001 22 11.0001C19.9833 11.0001 18.2569 11.7181 16.8208 13.1542C15.3847 14.5904 14.6666 16.3167 14.6666 18.3334V31.1667Z" fill="black"/>
</svg>
